<svg width="237" height="245" viewBox="0 0 237 245" fill="none" xmlns="http://www.w3.org/2000/svg">
<g clip-path="url(#clip0_434_248)">
<path d="M151.352 76.2168C151.562 76.2128 151.773 76.2148 151.978 76.2175L151.98 76.2235C151.774 76.2208 151.562 76.2128 151.352 76.2168Z" fill="#684800"/>
<path d="M170.306 76.6007L173.553 93.1193L169.971 93.8232L166.816 77.7715C164.772 77.3672 162.698 77.037 160.609 76.7905C158.394 76.5254 156.158 76.3508 153.91 76.2658C147.658 76.0375 141.281 76.522 134.882 77.7796C128.477 79.0384 122.39 81.0034 116.697 83.5854C114.641 84.5102 112.644 85.5166 110.693 86.6005C108.854 87.619 107.059 88.7094 105.319 89.8576L108.474 105.909L104.892 106.613L101.645 90.0881C101.417 88.9298 101.915 87.751 102.908 87.112C104.782 85.9044 107.537 84.1816 108.5 83.6401C111.493 81.9607 114.605 80.4439 117.829 79.1222C123.008 76.9823 128.471 75.3195 134.178 74.1979C139.885 73.0764 145.572 72.5478 151.173 72.563C154.659 72.5721 158.113 72.7983 161.515 73.2272C162.611 73.3636 165.816 73.9155 168.01 74.3237C169.171 74.54 170.079 75.4424 170.306 76.6007Z" fill="#684800"/>
<path d="M164.942 230.733C204.614 222.936 230.454 184.455 222.657 144.784C214.86 105.112 176.379 79.2722 136.708 87.0689C97.036 94.8656 71.1962 133.346 78.9929 173.018C86.7896 212.69 125.27 238.53 164.942 230.733Z" fill="#D59900"/>
<path d="M222.655 144.787C230.451 184.454 204.615 222.936 164.942 230.733C143.978 234.853 123.35 229.582 107.408 217.836C122.478 227.007 143.912 230.768 162.59 227.098C202.262 219.301 226.407 182.832 218.61 143.16C214.934 124.458 203.099 106.83 188.863 96.354C205.808 106.67 218.529 123.793 222.655 144.787Z" fill="#684800"/>
<path d="M163.687 224.345C199.831 217.242 223.373 182.183 216.269 146.039C209.166 109.895 174.107 86.3532 137.963 93.4566C101.819 100.56 78.2772 135.619 85.3806 171.763C92.484 207.907 127.543 231.449 163.687 224.345Z" fill="#684800"/>
<path d="M163.117 221.448C197.661 214.659 220.161 181.152 213.372 146.609C206.583 112.065 173.076 89.5649 138.532 96.3538C103.989 103.143 81.4888 136.65 88.2777 171.193C95.0666 205.737 128.573 228.237 163.117 221.448Z" fill="#C68C17"/>
<path d="M137.539 86.9158L139.159 95.1596L137.5 95.4858L135.88 87.2419C136.152 87.1761 136.432 87.1209 136.707 87.0669C136.981 87.013 137.262 86.9577 137.539 86.9158Z" fill="#684800"/>
<path d="M111.003 97.4794L115.655 104.476L114.246 105.412L109.595 98.4158C109.821 98.2506 110.059 98.0924 110.292 97.9372C110.526 97.7826 110.764 97.6239 111.003 97.4794Z" fill="#684800"/>
<path d="M90.5302 117.393L97.5047 122.077L96.562 123.481L89.5875 118.797C89.7333 118.558 89.8928 118.321 90.0487 118.089C90.2046 117.856 90.3642 117.619 90.5302 117.393Z" fill="#684800"/>
<path d="M79.2361 143.627L87.4724 145.285L87.1387 146.943L78.9024 145.285C78.9459 145.008 79.0023 144.728 79.0572 144.453C79.112 144.179 79.1688 143.898 79.2361 143.627Z" fill="#684800"/>
<path d="M78.8406 172.185L87.0844 170.565L87.4106 172.225L79.1668 173.845C79.1008 173.573 79.0456 173.292 78.9916 173.017C78.9376 172.742 78.8825 172.462 78.8406 172.185Z" fill="#684800"/>
<path d="M89.4042 198.721L96.4005 194.069L97.3368 195.477L90.3405 200.129C90.1753 199.903 90.0171 199.665 89.8619 199.431C89.7068 199.198 89.5487 198.961 89.4042 198.721Z" fill="#684800"/>
<path d="M109.318 219.194L114.002 212.22L115.405 213.163L110.722 220.137C110.483 219.991 110.245 219.832 110.013 219.676C109.781 219.52 109.544 219.36 109.318 219.194Z" fill="#684800"/>
<path d="M211.119 200.406L204.145 195.723L205.087 194.319L212.062 199.002C211.916 199.241 211.757 199.479 211.601 199.711C211.445 199.943 211.285 200.181 211.119 200.406Z" fill="#684800"/>
<path d="M222.414 174.173L214.177 172.515L214.511 170.857L222.747 172.515C222.704 172.792 222.647 173.072 222.593 173.347C222.538 173.621 222.481 173.901 222.414 174.173Z" fill="#684800"/>
<path d="M222.809 145.614L214.565 147.235L214.239 145.575L222.483 143.955C222.549 144.227 222.604 144.508 222.658 144.783C222.712 145.057 222.767 145.338 222.809 145.614Z" fill="#684800"/>
<path d="M212.245 119.079L205.249 123.73L204.313 122.321L211.309 117.67C211.474 117.896 211.632 118.134 211.787 118.368C211.943 118.601 212.101 118.839 212.245 119.079Z" fill="#684800"/>
<path d="M192.331 98.6055L187.648 105.58L186.244 104.637L190.928 97.6628C191.167 97.8086 191.404 97.9681 191.636 98.124C191.869 98.2799 192.105 98.439 192.331 98.6055Z" fill="#684800"/>
<path d="M166.098 87.3113L164.44 95.5476L162.782 95.2139L164.44 86.9777C164.717 87.0212 164.996 87.0775 165.271 87.1324C165.545 87.1872 165.826 87.244 166.098 87.3113Z" fill="#684800"/>
<path d="M162.9 220.34C196.831 213.671 218.933 180.758 212.264 146.826C205.595 112.894 172.682 90.7931 138.75 97.4617C104.818 104.13 82.717 137.044 89.3857 170.976C96.0543 204.907 128.968 227.009 162.9 220.34Z" fill="#D59900"/>
<path d="M171.49 99.8063L100.938 196.737C95.3375 189.373 91.2849 180.652 89.3831 170.975C87.9724 163.797 87.8567 156.665 88.8678 149.812L124.327 102.164C128.83 100.059 133.661 98.462 138.751 97.4615C150.084 95.2342 161.312 96.2285 171.49 99.8063Z" fill="#EDA900"/>
<path d="M203.539 125.113L134.879 219.448C125.612 216.992 117.058 212.442 109.869 206.233L184.398 106.082C192.014 110.925 198.582 117.394 203.539 125.113Z" fill="#EDA900"/>
<path d="M186.513 222.496L182.626 216.65L183.803 215.867L187.69 221.714C187.501 221.852 187.302 221.984 187.107 222.113C186.912 222.243 186.713 222.375 186.513 222.496Z" fill="#684800"/>
<path d="M164.247 230.859L162.893 223.97L164.28 223.698L165.634 230.587C165.406 230.642 165.172 230.688 164.942 230.733C164.713 230.778 164.478 230.824 164.247 230.859Z" fill="#684800"/>
<path d="M140.355 231.17L141.74 224.287L143.125 224.566L141.74 231.449C141.508 231.412 141.274 231.366 141.045 231.319C140.816 231.273 140.582 231.226 140.355 231.17Z" fill="#684800"/>
<path d="M147.791 -4.81037L163.962 77.4758C164.179 78.5773 163.254 79.5657 162.141 79.4202C161.795 79.3747 161.448 79.332 161.101 79.2919C152.527 78.2958 143.846 78.616 135.374 80.281C126.922 81.9421 118.716 84.9174 111.185 89.1019C110.879 89.2709 110.575 89.4416 110.271 89.6142C109.296 90.17 108.066 89.6051 107.85 88.5037L91.678 6.21744C91.1802 3.68483 92.8298 1.22758 95.3629 0.72975L142.303 -8.49536C144.836 -8.99319 147.293 -7.34348 147.791 -4.81037Z" fill="#F41943"/>
<path d="M102.119 -0.597882L118.162 81.0333C117.767 81.173 117.38 81.3109 117.003 81.447L100.925 -0.363281L102.119 -0.597882Z" fill="#D59900"/>
<path d="M152.429 78.7317C152.634 78.7349 152.845 78.7369 153.052 78.7455C152.839 78.7375 152.635 78.7404 152.43 78.7377L152.429 78.7317Z" fill="#D59900"/>
<path d="M136.741 -7.40233L152.869 74.6589C152.467 74.6633 152.053 74.6706 151.634 74.6845L135.548 -7.16772L136.741 -7.40233Z" fill="#D59900"/>
<path d="M153.052 78.7454C153.257 78.7485 153.468 78.7505 153.673 78.7532L153.675 78.7592C153.462 78.7517 153.257 78.7485 153.052 78.7454Z" fill="#D59900"/>
<path d="M107.377 86.0977C108.476 85.3175 111.363 83.5102 117.003 81.447L117.857 85.7929C115.585 86.7911 113.353 87.893 111.185 89.1004C110.878 89.2722 110.577 89.4433 110.269 89.6151C109.3 90.1714 108.067 89.6076 107.85 88.5036L107.377 86.0977Z" fill="#BA0F38"/>
<path d="M151.634 74.6844L152.429 78.7315C152.001 78.7292 151.573 78.7263 151.145 78.7294C145.853 78.7406 140.573 79.257 135.373 80.2789C131.266 81.086 127.214 82.2046 123.271 83.6246C121.829 84.1437 120.407 84.6958 118.999 85.2952L118.162 81.0331C122.259 79.6078 127.657 78.0821 134.671 76.7037C141.458 75.3698 147.09 74.8147 151.634 74.6844Z" fill="#BA0F38"/>
<path d="M163.565 75.4521L163.962 77.4759C164.179 78.5803 163.251 79.5684 162.144 79.4203C161.794 79.3776 161.451 79.3331 161.101 79.2905C158.632 79.0006 156.155 78.8243 153.675 78.7599L152.869 74.6589C157.853 74.5908 161.394 75.0418 163.565 75.4521Z" fill="#BA0F38"/>
<path d="M152.869 74.6589L153.674 78.7539C153.468 78.7507 153.257 78.7492 153.052 78.746C152.845 78.7368 152.634 78.7348 152.429 78.7322L151.634 74.6851C152.052 74.6706 152.467 74.6633 152.869 74.6589Z" fill="#C68C17"/>
<path d="M118.162 81.0332L118.999 85.2953C118.616 85.4572 118.238 85.6185 117.857 85.7923L117.003 81.4464C117.379 81.3114 117.767 81.1729 118.162 81.0332Z" fill="#C68C17"/>
<path d="M89.6689 71.8669C89.8759 71.9035 90.0828 71.9463 90.2836 71.9884V71.9946C90.0828 71.9524 89.8759 71.9035 89.6689 71.8669Z" fill="#684800"/>
<path d="M108.194 75.899V92.7336H104.543V76.3748C102.615 75.5838 100.644 74.8598 98.642 74.2152C96.519 73.5279 94.3594 72.9254 92.1693 72.4084C86.0794 70.9788 79.7282 70.2244 73.2066 70.2244C66.679 70.2244 60.3278 70.9788 54.244 72.4145C52.0477 72.9254 49.8942 73.5279 47.7712 74.2152C45.7697 74.8598 43.7987 75.5838 41.8699 76.3748V92.7336H38.2197V75.8924C38.2197 74.7119 38.936 73.6514 40.0331 73.2157C42.1048 72.3921 45.1403 71.233 46.1896 70.8873C49.4504 69.8167 52.7966 68.9285 56.2155 68.2534C61.709 67.1522 67.3907 66.5742 73.2066 66.5742C79.0225 66.5742 84.7047 67.1523 90.1978 68.2473C93.6167 68.9285 96.9628 69.8167 100.218 70.8934C101.267 71.2386 104.305 72.3983 106.379 73.2218C107.477 73.658 108.194 74.7185 108.194 75.899Z" fill="#684800"/>
<path d="M73.2071 226.104C113.638 226.104 146.413 193.328 146.413 152.897C146.413 112.467 113.638 79.6914 73.2071 79.6914C32.7765 79.6914 0.000976562 112.467 0.000976562 152.897C0.000976562 193.328 32.7765 226.104 73.2071 226.104Z" fill="#D59900"/>
<path d="M146.411 152.9C146.411 193.326 113.639 226.104 73.2071 226.104C51.8418 226.104 32.6173 216.954 19.2397 202.354C32.2584 214.259 52.5647 222.083 71.6001 222.083C112.032 222.083 142.755 190.955 142.755 150.523C142.755 131.464 134.541 111.885 122.593 98.8601C137.231 112.25 146.411 131.504 146.411 152.9Z" fill="#684800"/>
<path d="M73.207 219.594C110.042 219.594 139.903 189.733 139.903 152.898C139.903 116.062 110.042 86.2014 73.207 86.2014C36.3717 86.2014 6.51074 116.062 6.51074 152.898C6.51074 189.733 36.3717 219.594 73.207 219.594Z" fill="#684800"/>
<path d="M73.2072 216.641C108.412 216.641 136.951 188.102 136.951 152.898C136.951 117.693 108.412 89.1541 73.2072 89.1541C38.0026 89.1541 9.46362 117.693 9.46362 152.898C9.46362 188.102 38.0026 216.641 73.2072 216.641Z" fill="#C68C17"/>
<path d="M74.0525 79.7016V88.1032H72.3611V79.7016C72.6407 79.6894 72.9269 79.6895 73.2065 79.6895C73.4861 79.6895 73.7729 79.6894 74.0525 79.7016Z" fill="#684800"/>
<path d="M45.9776 84.9497L49.1926 92.7117L47.6298 93.3589L44.4148 85.5969C44.6685 85.4784 44.9328 85.3691 45.1916 85.2619C45.4504 85.1551 45.7147 85.0453 45.9776 84.9497Z" fill="#684800"/>
<path d="M22.0485 100.542L27.9889 106.482L26.7932 107.678L20.8528 101.737C21.0419 101.531 21.2442 101.329 21.442 101.131C21.6398 100.933 21.8421 100.731 22.0485 100.542Z" fill="#684800"/>
<path d="M5.90742 124.105L13.6694 127.32L13.0222 128.883L5.26025 125.668C5.35634 125.404 5.46564 125.14 5.5724 124.882C5.67916 124.623 5.78897 124.358 5.90742 124.105Z" fill="#684800"/>
<path d="M0.0122022 152.051H8.41374V153.743H0.0122022C1.05489e-06 153.463 0 153.176 0 152.897C0 152.617 1.05489e-06 152.331 0.0122022 152.051Z" fill="#684800"/>
<path d="M5.26025 180.126L13.0222 176.911L13.6694 178.473L5.90742 181.688C5.78897 181.434 5.67967 181.17 5.5724 180.911C5.46513 180.652 5.35583 180.389 5.26025 180.126Z" fill="#684800"/>
<path d="M20.8523 204.055L26.7927 198.115L27.9885 199.31L22.048 205.251C21.8416 205.062 21.6393 204.859 21.4415 204.662C21.2437 204.464 21.0419 204.262 20.8523 204.055Z" fill="#684800"/>
<path d="M124.366 205.251L118.425 199.31L119.621 198.115L125.561 204.055C125.372 204.262 125.17 204.464 124.972 204.662C124.774 204.859 124.572 205.062 124.366 205.251Z" fill="#684800"/>
<path d="M140.507 181.688L132.745 178.473L133.392 176.911L141.154 180.126C141.058 180.389 140.949 180.653 140.842 180.912C140.735 181.171 140.625 181.434 140.507 181.688Z" fill="#684800"/>
<path d="M146.402 153.742H138V152.051H146.402C146.414 152.331 146.414 152.616 146.414 152.896C146.414 153.176 146.414 153.462 146.402 153.742Z" fill="#684800"/>
<path d="M141.154 125.667L133.392 128.882L132.745 127.319L140.507 124.104C140.625 124.358 140.735 124.622 140.842 124.881C140.949 125.14 141.058 125.404 141.154 125.667Z" fill="#684800"/>
<path d="M125.562 101.738L119.621 107.678L118.426 106.483L124.366 100.542C124.573 100.731 124.775 100.934 124.973 101.131C125.17 101.329 125.372 101.531 125.562 101.738Z" fill="#684800"/>
<path d="M101.999 85.5969L98.7837 93.3589L97.2209 92.7117L100.436 84.9497C100.699 85.0458 100.963 85.1551 101.222 85.2619C101.481 85.3686 101.745 85.4784 101.999 85.5969Z" fill="#684800"/>
<path d="M73.2072 215.512C107.788 215.512 135.822 187.479 135.822 152.898C135.822 118.317 107.788 90.2832 73.2072 90.2832C38.6262 90.2832 10.5928 118.317 10.5928 152.898C10.5928 187.479 38.6262 215.512 73.2072 215.512Z" fill="#D59900"/>
<path d="M104.88 98.8972L16.9606 180.403C12.8849 172.097 10.5901 162.759 10.5901 152.897C10.5901 145.582 11.8519 138.561 14.1655 132.032L58.1483 92.1154C62.9718 90.9187 68.0201 90.2832 73.2081 90.2832C84.758 90.2832 95.583 93.424 104.88 98.8972Z" fill="#EDA900"/>
<path d="M131.447 129.909L45.884 209.233C37.2648 205.036 29.7489 198.922 23.8923 191.444L116.336 107.544C122.875 113.765 128.072 121.379 131.447 129.909Z" fill="#EDA900"/>
<path d="M95.9617 222.181L93.2749 215.695L94.5804 215.154L97.2672 221.64C97.0552 221.74 96.8341 221.831 96.618 221.92C96.402 222.01 96.1813 222.101 95.9617 222.181Z" fill="#684800"/>
<path d="M72.5005 226.094V219.073H73.9138V226.094C73.68 226.104 73.441 226.104 73.2071 226.104C72.9733 226.104 72.7343 226.104 72.5005 226.094Z" fill="#684800"/>
<path d="M48.9968 221.791L51.6836 215.304L52.9891 215.845L50.3023 222.332C50.0822 222.251 49.8616 222.16 49.6455 222.071C49.4295 221.981 49.2088 221.89 48.9968 221.791Z" fill="#684800"/>
<path d="M101.8 -8.32593V75.5343C101.8 76.6569 100.702 77.4484 99.6378 77.091C99.3073 76.9797 98.9754 76.8709 98.6424 76.7646C90.4213 74.1338 81.8413 72.7738 73.207 72.7738C64.5935 72.7738 55.9677 74.1109 47.7716 76.7646C47.4386 76.8714 47.1071 76.9802 46.7762 77.091C45.7121 77.4484 44.614 76.6569 44.614 75.5343V-8.32593C44.614 -10.907 46.7065 -13 49.2881 -13H97.1259C99.7074 -13 101.8 -10.9075 101.8 -8.32593Z" fill="#F41943"/>
<path d="M56.1731 -13V70.1928C55.7593 70.2538 55.3521 70.3143 54.9565 70.3753V-13H56.1731Z" fill="#D59900"/>
<path d="M90.241 74.5425C90.4418 74.5852 90.6487 74.6279 90.8495 74.6762C90.6426 74.6274 90.4418 74.5908 90.241 74.5486V74.5425Z" fill="#D59900"/>
<path d="M91.458 -13V70.631C91.0625 70.5578 90.6548 70.4851 90.2415 70.418V-13H91.458Z" fill="#D59900"/>
<path d="M90.8494 74.676C91.0502 74.7187 91.2571 74.7614 91.4579 74.8036V74.8097C91.251 74.7614 91.0502 74.7187 90.8494 74.676Z" fill="#D59900"/>
<path d="M44.614 73.0824C45.8428 72.5288 49.0247 71.3122 54.956 70.3752V74.8043C52.5346 75.3457 50.132 75.9964 47.7716 76.7631C47.4371 76.8724 47.1086 76.9822 46.7736 77.0915C45.7152 77.4504 44.614 76.6594 44.614 75.5343V73.0824Z" fill="#BA0F38"/>
<path d="M90.2408 70.4179V74.5424C89.8209 74.4575 89.4015 74.3721 88.9816 74.2928C83.7864 73.2832 78.5058 72.7717 73.207 72.7717C69.0215 72.7717 64.8298 73.088 60.687 73.7209C59.172 73.9522 57.6698 74.2196 56.1731 74.5363V70.1927C60.4679 69.5842 66.0591 69.1282 73.207 69.1282C80.124 69.1282 85.7574 69.6696 90.2408 70.4179Z" fill="#BA0F38"/>
<path d="M101.8 73.4717V75.5342C101.8 76.6598 100.699 77.4503 99.6404 77.0914C99.3059 76.9821 98.9775 76.8723 98.6425 76.763C96.276 76.0024 93.8789 75.3517 91.458 74.8103V70.6309C96.3614 71.5251 99.7497 72.6507 101.8 73.4717Z" fill="#BA0F38"/>
<path d="M91.458 70.631V74.8043C91.2572 74.7616 91.0503 74.7194 90.8495 74.6767C90.6487 74.6279 90.4418 74.5852 90.241 74.543V70.4185C90.6548 70.4851 91.0625 70.5578 91.458 70.631Z" fill="#C68C17"/>
<path d="M56.1731 70.1926V74.5363C55.7654 74.6212 55.3638 74.7066 54.9565 74.8037V70.3746C55.3516 70.3146 55.7593 70.2536 56.1731 70.1926Z" fill="#C68C17"/>
</g>
<defs>
<clipPath id="clip0_434_248">
<rect width="237" height="245" fill="white"/>
</clipPath>
</defs>
</svg>
