<svg width="1440" height="2715" viewBox="0 0 1440 2715" fill="none" xmlns="http://www.w3.org/2000/svg">
<g clip-path="url(#clip0_80_21745)">
<path d="M1755.5 -33H-331V2749H1755.5V-33Z" fill="white"/>
<path d="M1755.5 -33H-331V2749H1755.5V-33Z" fill="white"/>
<path d="M-383.804 2414.66V2286.81L-279.766 2171.11L-383.804 2039.18V1948.11L-222.69 1785.47L-383.804 1608.22V1502.37L-303.236 1398.64L-383.804 1319.09V1222.38L-276.657 1079.59L-383.804 1022.01V945.054C-282.12 831.507 -383.804 835.303 -383.804 835.303V729.024C-244.349 600.949 -351.451 424.78 -346.946 147.622C-343.15 -84.5739 -276.649 -84.5739 -276.649 -84.5739H-182.836L-126.38 -14.7371L-38.2576 -84.5739H60.83C60.83 -84.5739 111.762 -23.0007 171.238 -1.51534C230.72 19.97 218.827 -84.5739 218.827 -84.5739H309.251C309.251 -84.5739 353.022 -23.0007 406.776 13.3516C460.539 49.6963 604.212 -84.5739 604.212 -84.5739H773.816C773.816 -84.5739 799.21 10.0612 822.341 46.4135C845.501 82.7657 1240.45 -84.5739 1247.7 -84.5739H1471.46C1471.46 -84.5739 1427.21 -24.6458 1422.25 29.8788C1417.3 84.4034 1782.47 -69.3749 1790.4 -72.4011V7.08785C1790.4 7.08785 1729.62 97.6251 1704.82 148.867C1680.02 200.109 1790.4 216.221 1790.4 216.221V327.957L1711.42 555.398L1790.4 876.863V1017.59L1759.35 1046.24L1790.4 1189.85V1282.65C1790.4 1282.65 1732.91 1317.28 1706.46 1338.73C1680.02 1360.23 1790.4 1469.39 1790.4 1469.39V1624.47L1720.96 1672.76L1790.4 1748.27V1809.42L1720.96 1901.48L1790.4 2034.77V2070.46L1736.35 2171.3L1790.4 2337.03V2375.42C1790.4 2375.42 1734.66 2432.27 1736.35 2437.39C1738.06 2442.52 1790.4 2542.67 1790.4 2542.67V2625.76L1720.96 2643.91L1790.4 2771.56V2814.37H1749.33C1749.33 2814.37 1311.17 2742.52 1237.31 2753.44C1163.45 2764.37 987.19 2813.06 984.073 2814.37C980.934 2815.67 900.788 2814.37 900.788 2814.37C900.788 2814.37 843.517 2763.72 783.355 2773.97C723.2 2784.21 606.446 2814.37 606.446 2814.37H386.31C386.31 2814.37 321.197 2781.47 261.722 2771.22C202.27 2760.98 -0.320526 2814.37 -0.320526 2814.37H-136.545L-383.804 2642.83V2542.7L-342.614 2479.97L-383.804 2414.66Z" fill="#FFB800"/>
<path d="M-383.804 945.054V835.303C57.4642 581.019 -207.974 196.939 -182.806 -84.5739H-38.2576C-34.122 127.751 375.495 560.469 -383.804 945.054ZM562.313 1810.18C474.923 1795.18 42.4011 2000.26 -383.804 2039.18V2286.81C192.957 2204.09 651.462 1825.5 562.313 1810.18ZM984.073 2814.37H1749.33C1658.93 2712.08 1415.69 2527.87 984.073 2814.37ZM1399.58 1214.76C1386.28 1178.53 1265.48 1097.99 1188.96 951.001C1112.43 804.015 1099.07 688.627 1050.46 708.897C1009.58 725.937 1093.36 1002.73 1057.12 1171.88C1020.88 1341.01 1047.97 1331.26 1104.37 1282.94C1160.73 1234.61 1239.29 1238.97 1299.7 1259.1C1360.12 1279.23 1412.89 1251 1399.58 1214.76Z" fill="#8C52FF"/>
<path d="M-383.804 729.024V-84.5739H-276.657C-298.195 103.655 -84.3978 510.359 -383.804 729.024ZM379.488 918.671C498.219 623.997 189.274 207.074 218.827 -84.5739H60.7999C54.7173 50.8585 180.014 288.661 159.035 505.462C135.429 749.407 -20.7569 889.881 -383.781 1022.01V1222.41C-176.746 1210.09 283.804 1156.05 379.488 918.671ZM1790.4 876.863V327.957C1734.91 384.179 1666.06 477.803 1653.04 604.745C1639.09 741.257 1724.39 829.696 1790.4 876.863ZM1790.4 2771.59V2625.79C1689.99 2524.98 1488.64 2378.56 1208.04 2443.42C934.107 2506.75 719.887 2694.67 606.446 2814.34H900.818C1345.6 2447.33 1682.34 2675.93 1790.4 2771.59ZM1176.41 1579.37C1412.49 1460.64 1575.7 1748.24 1790.4 1748.24V1624.44C1473.1 1498.63 1435.51 1298.28 1253.08 1293.84C1048.05 1288.86 979.945 1710.13 442.336 2053.65C52.5891 2302.69 -247.949 2387.05 -383.804 2414.63V2542.7C725.66 2204.71 902.343 1717.21 1176.41 1579.37Z" fill="#004AAD"/>
<path d="M583.663 1226.03C312.255 1395.81 -211.627 1478.84 -383.804 1502.37V1319.12C645.968 1177.45 565 788.703 460.939 534.562C366.945 305.053 263.76 71.1816 309.251 -84.5739H604.212C566.222 -28.8871 523.984 76.6756 559.083 250.702C616.332 534.705 953.841 994.485 583.663 1226.03ZM1395.95 601.123C1459.91 861.234 1683.59 1091.7 1790.4 1189.85V1017.59C1731.09 973.792 1631.73 871.625 1592.6 661.813C1555.68 463.759 1689.96 304.57 1790.4 216.221V7.08786C1580.23 110.703 1330.14 333.368 1395.95 601.123ZM1790.4 2070.46C1738.4 2071.94 1428.46 1889.53 1211.69 1948.11C994.918 2006.66 627.282 2524.42 -0.320526 2814.37H386.34C386.34 2814.37 595.609 2682.95 858.353 2451.91C1017.6 2311.87 1141.31 2095.01 1294.13 2090.09C1518.2 2082.81 1790.4 2337.04 1790.4 2337.04V2070.46Z" fill="#04B86C"/>
<path d="M-383.804 1948.11V1608.22C-129.466 1581.67 417.025 1502.11 657.778 1293.81C977.055 1017.56 750.376 604.745 653.809 266.27C606.28 99.5797 679.067 -12.3825 773.816 -84.5739H1247.7C951.63 42.9873 825.118 183.687 910.018 464.861C1001.48 767.866 1055.28 1129.07 895.068 1425.02C691.746 1779.27 -26.9904 1915.55 -383.804 1948.11ZM1013.89 304.63C991.778 570.544 1348.77 1224.82 1790.4 1469.36V1282.62C1569.75 1115.03 1372.54 903.616 1319.69 482.165C1276.26 135.872 1704.14 -39.9278 1790.4 -72.4011V-84.5739H1471.44C1275.5 -28.2682 1032.09 85.3995 1013.89 304.63ZM1790.4 1809.39C1651.54 1821.09 1430.19 1643.86 1222.84 1695.7C1015.5 1747.54 713.94 2140.99 336.992 2362.45C-39.9556 2583.92 -383.804 2642.81 -383.804 2642.81V2814.37H-136.545C-136.545 2814.37 357.942 2560.26 754.677 2226.85C1055.44 1974.09 1171.86 1759 1415.04 1855.36C1556.73 1911.5 1790.4 2034.77 1790.4 2034.77V1809.39ZM1790.4 2375.42C1717.16 2379.98 1501.61 2143.59 1319.24 2174C1136.86 2204.4 1004.23 2378.02 1117.53 2375.48C1230.83 2372.93 1540.34 2306.26 1790.4 2542.67V2375.42Z" fill="#E5532D"/>
</g>
<defs>
<clipPath id="clip0_80_21745">
<rect width="2086.5" height="2782" fill="white" transform="translate(-331 -33)"/>
</clipPath>
</defs>
</svg>
